<?xml version="1.0" encoding="utf-8"?>
<!-- Generator: Adobe Illustrator 27.6.1, SVG Export Plug-In . SVG Version: 6.00 Build 0)  -->
<svg version="1.1" id="Layer_1" xmlns="http://www.w3.org/2000/svg" xmlns:xlink="http://www.w3.org/1999/xlink" x="0px" y="0px"
	 viewBox="0 0 161.7 161" style="enable-background:new 0 0 161.7 161;" xml:space="preserve">

<style type="text/css">
	.st0{fill:#2151A2;stroke:#FFFFFF;stroke-miterlimit:10;}
	.st1{fill:#2151A2;stroke:#FFFFFF;stroke-width:0.5;stroke-miterlimit:10;}
</style>
<g>
	<g>
		<g>
			<path class="st0" d="M128.6,142.5c-0.1-0.1-0.1-0.2-0.1-0.2c-0.7-0.9-1.3-1.8-2-2.8c-0.7-0.9-1.3-1.8-2-2.7
				c-0.9-1.3-1.8-2.5-2.8-3.8c-0.9-1.2-1.9-2.5-2.8-3.8c-0.2-0.2-0.1-0.6,0-0.8c0.7-0.8,1.1-1.7,1.7-2.4c1.3-1.9,2.7-3.8,4-5.6
				c1.2-1.7,2.4-3.3,3.6-5c0.1-0.1,0.2-0.2,0.1-0.3c-0.1-0.1-0.2-0.1-0.3-0.1c-0.4,0-0.9,0-1.3,0c-2.8,0-5.6,0-8.4,0
				c-0.4,0-0.8,0.1-1.1,0.7c-1.1,1.8-2.4,3.5-3.5,5.3c-0.3,0.6-0.7,0.3-0.9,0c-1.1-1.5-2.1-3.2-3.2-4.8c-1.3-1.9-2.5-3.9-3.9-5.7
				c-0.6-0.9-1.1-1.8-1.7-2.7c-0.2-0.3-0.2-0.6,0-0.8c0.7-0.4,1.1-1.1,1.5-1.7c1.5-1.8,2.8-3.6,3.3-6.1c0.3-1.8,0.2-3.4-0.3-5
				c-0.8-2-2.1-3.6-3.8-5c-2.2-1.8-4.8-2.7-7.5-2.5c-1.9,0-3.9,0-5.7,0c-0.3,0-0.7,0-1,0c-0.2,0-0.3,0-0.6,0h-9.1v0.4
				c0,0.1-0.1,0.3-0.1,0.7c0,2.3,0,4.5,0,6.9s0,4.6,0,7c0,0.2,0,0.3,0.1,0.6v4.1c0,0.1,0,0.3,0,0.4c0,0.2,0,0.4,0,0.7
				c-0.1,2.8-0.1,5.5,0,8.3c0,0.8,0.2,0.9,0.9,0.8c3,0,5.9,0,8.8,0c0.7,0,0.8-0.2,0.8-0.8c0-1.9,0-3.9,0-5.7c0-0.2-0.1-0.7,0.2-0.7
				c0.6-0.1,1.1,0,1.7,0c0.4,0,0.3,0.4,0.6,0.7c0.4,0.3,0.6,0.8,0.8,1.1c1.2,1.8,2.4,3.4,3.6,5.2c1.2,1.7,2.3,3.4,3.5,5.1
				c0.7,0.9,1.3,1.9,2,2.8c1,1.4,2,2.9,3,4.3c0.4,0.6,0.4,1,0,1.5c-0.8,0.9-1.4,1.8-2,2.7c-0.7,1-1.3,2-2.1,3
				c-0.7,0.9-1.2,1.8-1.9,2.7c-0.8,1-1.4,2-2.1,2.9c-0.6,0.8-1.2,1.4-1.7,2.3c4,0,7.7,0,11.6,0c0.3,0,0.6-0.2,0.7-0.4
				c1.1-2.1,2.4-3.9,3.5-6c0.2-0.4,0.4-0.6,0.9-0.1c0.7,0.8,1.1,1.8,1.7,2.5c0.8,1.1,1.5,2.1,2.1,3.2c0.3,0.7,0.7,0.7,1.2,0.7
				c3.2,0,6.5,0,9.7,0c0.3,0,0.9,0.2,1-0.1C129.3,142.9,128.8,142.7,128.6,142.5z M97.6,99.6c-0.7,1.1-1.9,1.4-3,1.5
				c-0.8,0.1-1.5,0-2.4,0c-0.4,0-0.8-0.1-0.9-0.3c-0.1-0.2-0.1-0.4-0.1-0.8c0-0.8,0-1.5,0-2.3l0,0c0-0.7,0-1.4,0-2.1
				c0-0.2,0-0.4,0.1-0.7c0,0,0.1-0.1,0.2-0.1c1.9-0.2,3.8-0.6,5.4,0.7C98.5,96.6,98.3,98.4,97.6,99.6z"/>
			<g>
				<path class="st0" d="M90,56.4c0.6,2.1,0.6,5-0.4,8.3c-2.2,8.1-8.5,16-13.7,16.5c-5.3,0.6-6.4-6.9-2.9-15.4
					c1.4-3.5,3.5-6.6,5.6-8.8C72.1,60.9,64.1,70,58,82.6c-10.7,22.2-11.1,44.6,2.4,42.3c12.9-2.2,27.7-25.6,32.2-45.8
					C95.3,67.7,93.9,59.5,90,56.4z"/>
				<path class="st0" d="M75.9,55.6c-2.5,2-6.2,4.2-10.5,6.1c-10,4.4-19,5.3-19.1,1.9c-0.1-3.3,7.8-8.8,17.1-12.4
					c4-1.5,7.6-2.4,10.4-2.8c-5-1.2-15.1,0.4-27.6,5C26.7,60.5,6.4,72.9,4.3,80.7c-2.4,8.8,18.9,6,42.8-5.1
					C61.8,68.8,72.4,61.1,75.9,55.6z"/>
				<path class="st0" d="M53.6,43.5c6.5,3.2,15.1,4.1,21.4,2.4c-2.5,0-5.3-0.7-7.6-1.8c-4.9-2.3-6-6-2.7-8.1c3.1-2,9.1-1.9,13.6,0.1
					c2.2,1,3.8,2.2,4.5,3.4c0.6-3.4-2.7-7.1-8.5-9.6c-7.6-3.2-17.8-3.3-23.5-0.3C44.5,33.1,45.2,39.3,53.6,43.5z"/>
				<path class="st0" d="M86.1,38.5c-0.4-1.4-0.2-3.2,0.6-5.1c1.5-3.8,5.2-6.6,8.2-6.6c2.9,0,4.5,2.8,3.4,6.4
					c-0.6,1.9-1.5,3.6-2.9,5c4.3-2.3,7.8-6.7,8.8-11.4c1.2-5.4-1.5-9.4-6.2-9.4c-4.6-0.1-10.4,3.9-13.2,9.5
					C82.7,31.8,83.1,36.3,86.1,38.5z"/>
				<path class="st0" d="M97.7,39.3c1.7-1.3,3.9-2.7,6.5-3.6c5.4-2.1,10.7-2.3,12-0.6c1.4,1.8-1.7,5.2-7.3,7.6
					c-2.8,1.2-5.6,2-8.1,2.2c4.8,1.1,12.8-0.2,20.1-3.6c9-4.2,12.9-9.5,10.1-12.3c-2.7-2.7-10.9-2.3-19.3,0.7
					C105,32.2,99.5,35.9,97.7,39.3z"/>
				<path class="st0" d="M137,69c2.5-6.3-4.9-14.7-15.8-19.3c-7.5-3.2-15.4-4-20.8-2.3c2.4,0.1,5.1,0.7,7.7,1.8c5.7,2.5,9,7,7,9.9
					c-2.2,3.2-9.3,3.4-15.6,0.4c-2.9-1.3-4.9-3.1-6-4.9c-0.1,5,4.8,11.3,13.6,15.7C120.2,77,134.1,76.1,137,69z"/>
			</g>
		</g>
		<g>
			<g>
				<path class="st1" d="M109.6,110V99.3h6.5l0.9,0.9l0.9,0.9v7.4l-0.9,0.9l-0.9,0.9h-6.5V110z M114.5,107.5v-5.8h-1.6v5.8H114.5z"
					/>
				<path class="st1" d="M118.3,110V99.3h3.3V110H118.3z"/>
				<path class="st1" d="M123.5,110l-0.9-0.9l-0.9-0.9v-7.4l0.9-0.9l0.9-0.9h4.9l0.9,0.9l0.9,0.9v1.6h-3.3v-0.9h-1.6v5.8h1.6v-1.6
					H126v-2.4h4.1v6.5h-6.6V110z"/>
				<path class="st1" d="M130.6,110V99.3h3.3V110H130.6z"/>
				<path class="st1" d="M136.4,110v-8.3h-2.5v-2.5h8.3v2.5h-2.5v8.3H136.4z"/>
				<path class="st1" d="M142.3,110v-9l0.9-0.9l0.9-0.9h4.9l0.9,0.9l0.9,0.9v9h-3.3v-3.3h-1.7v3.3H142.3z M147.2,104.2v-2.5h-1.6
					v2.5H147.2z"/>
				<path class="st1" d="M152.7,110l-0.9-0.9l-0.9-0.9v-9h3.3v8.3h3.3v2.5C157.6,110,152.7,110,152.7,110z"/>
			</g>
		</g>
	</g>
</g>
</svg>
